<svg width="50" height="50" viewBox="0 0 50 50" fill="none" xmlns="http://www.w3.org/2000/svg">
<path d="M25 4.16666C13.5 4.16666 4.16667 13.5 4.16667 25C4.16667 36.5 13.5 45.8333 25 45.8333C36.5 45.8333 45.8333 36.5 45.8333 25C45.8333 13.5 36.5 4.16666 25 4.16666ZM25 10.4167C28.4583 10.4167 31.25 13.2083 31.25 16.6667C31.25 20.125 28.4583 22.9167 25 22.9167C21.5417 22.9167 18.75 20.125 18.75 16.6667C18.75 13.2083 21.5417 10.4167 25 10.4167ZM25 40C19.7917 40 15.1875 37.3333 12.5 33.2917C12.5625 29.1458 20.8333 26.875 25 26.875C29.1458 26.875 37.4375 29.1458 37.5 33.2917C34.8125 37.3333 30.2083 40 25 40Z" fill="#115C58"/>
</svg>
