<svg width="50" height="50" viewBox="0 0 50 50" fill="none" xmlns="http://www.w3.org/2000/svg">
<path d="M25 4.16666C13.5 4.16666 4.16667 13.5 4.16667 25C4.16667 36.5 13.5 45.8333 25 45.8333C36.5 45.8333 45.8333 36.5 45.8333 25C45.8333 13.5 36.5 4.16666 25 4.16666ZM25 38.5417C23.2708 38.5417 21.875 37.1458 21.875 35.4167H28.125C28.125 37.1458 26.7292 38.5417 25 38.5417ZM35.4167 33.3333H14.5833V31.25L16.6667 29.1667V23.7292C16.6667 19.3125 18.8125 15.5625 22.9167 14.5833V13.5417C22.9167 12.3542 23.8125 11.4583 25 11.4583C26.1875 11.4583 27.0833 12.3542 27.0833 13.5417V14.5833C31.1875 15.5625 33.3333 19.3333 33.3333 23.7292V29.1667L35.4167 31.25V33.3333Z" fill="#115C58"/>
</svg>
